<svg id="erfucZ7Dewb1" xmlns="http://www.w3.org/2000/svg" xmlns:xlink="http://www.w3.org/1999/xlink" viewBox="0 0 1200 1200" shape-rendering="geometricPrecision" text-rendering="geometricPrecision"><path d="M50.685205,556.846219h601.104983v-338.858203h495.027633v969.429115h-474.401482v-288.766121L600,798.466846h-549.314795v-241.620627Z" transform="translate(0 0.000003)" fill="none" stroke="#3f5787" stroke-width="2.4"/><rect width="58.931861" height="100.184163" rx="0" ry="0" transform="translate(206.854637 556.84622)" fill="#eddcd2" stroke-width="0"/><rect width="282.872933" height="100.184163" rx="0" ry="0" transform="matrix(.833334 0 0 1 416.062556 556.84622)" fill="#d2dbed" stroke-width="0"/><rect width="495.027632" height="439.042364" rx="0" ry="0" transform="translate(651.790189 217.988019)" fill="#ea855b" stroke-width="0"/><rect width="88.397792" height="187.10866" rx="0" ry="0" transform="matrix(1 0 0 0.763779 914.03697 1044.507468)" fill="#d2dbed" stroke-width="0"/><rect width="144.383059" height="374.217319" rx="0" ry="0" transform="translate(1005.381355 813.199815)" fill="#f44962" stroke-width="0"/><path d="M283.466056,702.702577v92.81768l347.697981,2.946592l20.626151-47.145489-.000001-48.618783h-368.324131Z" transform="translate(.000001 0)" fill="#6e6666" stroke="#3f5787" stroke-width="2.4"/><path d="M914.03697,1187.417134l-238.744342-.000001-2.876289-332.965016l47.145488-41.252303h194.475141l.000002,374.21732Z" transform="matrix(1.024389 0 0 1-19.346001 0.000001)" fill="#5af679" stroke="#3f5787" stroke-width="2.4"/><rect width="129.650282" height="100.184163" rx="0" ry="0" transform="translate(416.062556 556.84622)" fill="#edd2d9" stroke-width="0"/><rect width="106.077351" height="100.184163" rx="0" ry="0" transform="translate(545.712838 556.84622)" fill="#d2edde" stroke-width="0"/><rect width="247.513517" height="159.116026" rx="0" ry="0" transform="matrix(1 0 0 1.111111 669.4699 1010.621568)" fill="#d2eddd" stroke-width="0"/><rect width="94.290824" height="117.863741" rx="0" ry="0" transform="translate(669.4699 892.757828)" fill="#494a4a" stroke-width="0"/><path d="M763.760724,934.01013h64.825044v-120.810317l88.397645.000001v197.421753l-153.222691-.000001.000002-76.611436Z" transform="translate(.000003 0.000002)" fill="#d89af4" stroke="#3f5787" stroke-width="2.4"/><path d="M763.760727,934.010132h64.825044v-120.810316h-111.970459l-44.198974,41.252302-.000001,44.198895h91.344385l.000005,35.359119Z" transform="translate(.000002 0)" fill="#f5f699" stroke="#3f5787" stroke-width="2.4"/><rect width="64.825046" height="92.81768" rx="0" ry="0" transform="translate(283.466057 702.702577)" fill="#585b60" stroke-width="0"/><rect width="147.329653" height="92.81768" rx="0" ry="0" transform="translate(348.291104 702.702577)" fill="#4c83ef" stroke-width="0"/><rect width="79.558012" height="92.81768" rx="0" ry="0" transform="translate(495.620757 702.702577)" fill="#edd2dd" stroke-width="0"/><path d="M575.178769,702.702577v92.81768l55.985266,2.946592l20.626153-49.355432-.000001-46.40884h-76.611418Z" transform="translate(.000003 0)" fill="#6ff478" stroke="#3f5787" stroke-width="2.4"/><rect width="67.77164" height="76.61142" rx="0" ry="0" transform="translate(958.235866 689.442906)" fill="#d2dbed" stroke-width="0"/><path d="M97.830694,556.846221v100.184162l-50.092084-.000001-2.946596,141.436466h53.03868v-241.620627Z" transform="translate(.000005 0.000001)" fill="#575454" stroke="#3f5787" stroke-width="2.4"/><path d="M97.830699,556.846222v238.674035l109.023938,2.946591v-241.620627l-109.023938.000001Z" transform="translate(0 0.000003)" fill="#e8c78b" stroke="#3f5787" stroke-width="2.4"/><rect width="67.771453" height="47.882136" rx="0" ry="0" transform="translate(348.291104 702.702577)" fill="#d2edd9" stroke-width="0"/><rect width="67.771453" height="44.935544" rx="0" ry="0" transform="translate(348.291104 750.584713)" fill="#f65858" stroke-width="0"/><rect width="79.558201" height="46.40884" rx="0" ry="0" transform="translate(416.062556 702.702577)" fill="#d2dbed" stroke-width="0"/><rect width="79.558201" height="46.40884" rx="0" ry="0" transform="translate(416.062556 749.111417)" fill="#44ed82" stroke-width="0"/><ellipse rx="33.149125" ry="25.046041" transform="translate(363.760671 631.984343)" fill="#ef495c" stroke-width="0"/><ellipse rx="25.046041" ry="22.836097" transform="translate(290.832539 634.194287)" fill="#edd2ea" stroke-width="0"/></svg>
